<svg width="304" height="314" viewBox="0 0 304 314" fill="none" xmlns="http://www.w3.org/2000/svg">
    <path
        d="M148.718 1.82694C150.609 0.701162 152.965 0.701165 154.856 1.82695L280.308 76.5057C282.125 77.5875 283.239 79.5463 283.239 81.6613V231.34C283.239 233.455 282.125 235.414 280.308 236.496L154.856 311.175C152.965 312.3 150.609 312.3 148.718 311.175L23.2666 236.496C21.4492 235.414 20.3356 233.455 20.3356 231.34V81.6613C20.3356 79.5463 21.4492 77.5875 23.2666 76.5057L148.718 1.82694Z"
        fill="#121212" />
    <path opacity="0.5"
        d="M148.718 1.82694C150.609 0.701162 152.965 0.701165 154.856 1.82695L280.308 76.5057C282.125 77.5875 283.239 79.5463 283.239 81.6613V231.34C283.239 233.455 282.125 235.414 280.308 236.496L154.856 311.175C152.965 312.3 150.609 312.3 148.718 311.175L23.2666 236.496C21.4492 235.414 20.3356 233.455 20.3356 231.34V81.6613C20.3356 79.5463 21.4492 77.5875 23.2666 76.5057L148.718 1.82694Z"
        fill="#0E7F13" />
    <path opacity="0.5"
        d="M148.437 57.8183C150.325 56.6974 152.675 56.6974 154.563 57.8183L225.206 99.7564C227.027 100.837 228.143 102.798 228.143 104.916V189.084C228.143 191.202 227.027 193.163 225.206 194.244L154.563 236.182C152.675 237.303 150.325 237.303 148.437 236.182L77.7939 194.244C75.973 193.163 74.8568 191.202 74.8568 189.084V104.916C74.8568 102.798 75.973 100.837 77.7939 99.7564L148.437 57.8183Z"
        fill="white" fill-opacity="0.8" />
    <path opacity="0.5"
        d="M151 56L225.052 99.7582C226.879 100.838 228 102.802 228 104.924V189.076C228 191.198 226.879 193.162 225.052 194.242L151 238V56Z"
        fill="white" fill-opacity="0.8" />
    <path opacity="0.5"
        d="M147.646 164.891C149.563 163.729 151.967 163.733 153.88 164.9L224.242 207.83C226.835 209.412 226.788 213.194 224.156 214.71L153.752 255.28C151.903 256.345 149.627 256.348 147.775 255.288L76.8929 214.716C74.2475 213.202 74.2001 209.403 76.8068 207.824L147.646 164.891Z"
        fill="white" fill-opacity="0.8" />
</svg>